<svg width="512" height="261" viewBox="0 0 512 261" fill="none" xmlns="http://www.w3.org/2000/svg">
<path d="M463.767 0.283203C471.71 8.46924 477.475 12.4956 483.284 13.0752C489.088 13.654 495.087 10.8076 503.551 4.77832L503.681 4.68555H511.153L510.982 5.31641C508.714 13.7081 506.391 20.0015 501.979 24.9668C497.613 29.8814 491.249 33.4411 481.032 36.5244V231.174L480.475 231.109C469.915 229.886 460.258 224.13 448.467 211.083C436.707 198.071 422.769 177.747 403.646 147.276C390.154 145.155 379.558 143.843 368.629 144.275C357.729 144.707 346.473 146.875 331.67 151.734V192.784C348.73 193.301 358.402 195.1 374.87 202.262L397.474 186.032L397.836 185.771L398.136 186.103L404.319 192.934L404.702 193.357L404.232 193.682L350.005 231.024L349.78 231.18L349.529 231.074C331.282 223.465 317.19 217.841 303.478 218.151C289.812 218.461 276.443 224.676 259.692 240.99L259.495 241.183L259.227 241.118L251.616 239.297L250.91 239.128L251.319 238.528C260.049 225.759 268.182 216.885 278.809 210.204C289.353 203.575 302.317 199.129 320.681 195.144V126.714C313.909 124.98 309.034 124.833 304.661 126.785C300.187 128.783 296.144 133.014 291.149 140.271L290.568 141.115L290.261 140.137L290.239 140.067C288.43 134.309 286.803 129.137 286.048 124.581C285.292 120.023 285.394 116.006 287.113 112.587C288.837 109.158 292.142 106.421 297.594 104.323C302.96 102.259 310.452 100.797 320.681 99.9092V36.3848C307.581 25.1995 297.368 20.886 287.176 22.626C276.895 24.3812 266.485 32.3096 253.063 46.042L214.453 93.2051C214.467 93.21 214.482 93.2147 214.496 93.2197C214.968 93.3846 215.657 93.6311 216.527 93.959C218.269 94.6153 220.738 95.5979 223.65 96.9033C229.474 99.5133 237.086 103.42 244.217 108.604C251.344 113.784 258.022 120.263 261.939 128.025C265.866 135.807 267.005 144.86 263.077 155.124C259.164 165.35 251.696 174.569 242.733 182.638C233.768 190.709 223.283 197.651 213.295 203.318C203.306 208.986 193.802 213.384 186.798 216.366C183.296 217.857 180.416 218.995 178.412 219.76C177.411 220.142 176.627 220.431 176.094 220.625C175.827 220.722 175.622 220.795 175.484 220.844C175.416 220.868 175.363 220.887 175.328 220.899C175.311 220.905 175.297 220.91 175.288 220.913C175.284 220.915 175.281 220.916 175.278 220.917L175.275 220.918L175.11 220.445L175.274 220.918L175.021 221.006L174.808 220.844C158.672 208.565 147.082 201.211 134.257 195.042C132.808 197.064 129.801 200.194 125.669 203.987C121.27 208.026 115.559 212.849 109.006 217.949C95.901 228.148 79.405 239.469 63.2559 247.833C55.1812 252.015 47.1814 255.464 39.7295 257.662C32.2829 259.859 25.3498 260.817 19.4189 259.986C13.4713 259.153 8.52576 256.518 5.11426 251.546C1.71465 246.591 -0.122066 239.372 0.00683594 229.439C0.252044 210.552 8.43599 197.044 20.7656 187.518C33.0749 178.007 49.5011 172.472 66.252 169.451C83.0094 166.429 100.136 165.914 113.883 166.475C120.757 166.755 126.793 167.305 131.52 167.946C135.921 168.543 139.227 169.224 141.016 169.854L162.172 142.802C161.452 142.681 160.724 142.56 159.989 142.439C101.731 132.89 76.8525 112.603 69.1582 94.6309C65.3114 85.6453 65.7757 77.2579 68.5156 71.1562C71.2458 65.0769 76.2849 61.1957 81.5938 61.4463L82.5889 61.4932L81.957 62.2627L81.9561 62.2617V62.2637C81.9546 62.2655 81.9521 62.2695 81.9482 62.2744C81.9401 62.2848 81.9266 62.3018 81.9092 62.3252C81.8741 62.3723 81.8213 62.4463 81.7559 62.5449C81.6248 62.7424 81.4419 63.0407 81.2461 63.4346C80.8543 64.2229 80.4086 65.3918 80.2061 66.8955C79.8031 69.8884 80.3558 74.2755 84.3486 79.7119C92.3678 90.6301 114.221 105.719 169.711 121.966C172.157 122.682 174.516 123.397 176.79 124.11L188.551 109.073C131.947 89.2859 109.495 71.4818 101.247 58.502C97.0956 51.9685 96.5402 46.6528 97.0557 42.9414C97.3127 41.0913 97.8342 39.6514 98.2949 38.6699C98.5252 38.1794 98.7406 37.8025 98.9004 37.5459C98.9801 37.4179 99.0466 37.3197 99.0938 37.252C99.1154 37.2208 99.1323 37.1949 99.1455 37.1768C104.539 26.8518 110.573 19.4852 117.683 14.7529C124.808 10.0105 132.976 7.94049 142.579 8.14551C161.697 8.55383 186.595 17.9848 220.544 33.3848L249.402 17.0068L249.813 16.7734L250.069 17.1719L254.569 24.1719L254.855 24.6162L254.396 24.877L198.896 56.377L198.526 56.5859L198.26 56.2559C183.548 38.0063 167.86 25.0884 153.416 20.0166C146.202 17.4836 139.318 16.9143 133.022 18.5908C126.731 20.2664 120.98 24.1973 116.045 30.7461C112.009 36.1023 110.826 40.6576 111.866 44.7188C112.913 48.8056 116.243 52.5347 121.561 56.1465C132.203 63.3742 150.443 69.9019 172.731 77.874C182.495 81.366 193.022 85.1324 204 89.3496L245.767 41.2441L245.751 41.2324L246.135 40.8213C246.136 40.8204 246.136 40.8192 246.137 40.8184L246.426 40.4873L246.439 40.4971C258.875 27.2367 270.11 16.6329 280.978 9.71582C291.943 2.73657 302.571 -0.512194 313.702 1.0752C324.822 2.66117 336.362 9.06173 349.185 21.2031C361.977 33.3159 376.08 51.1774 392.354 75.7754C411.55 79.301 425.368 80.8356 437.388 80.3301C449.332 79.8276 459.523 77.3083 471.471 72.6973V36.6611C462.405 36.8348 455.953 36.2894 450.415 34.8398C444.86 33.3859 440.253 31.0312 434.871 27.6377L410.403 43.4053L410.047 43.6348L409.762 43.3203L403.578 36.4893L403.169 36.0371L403.692 35.7246L463.151 0.202148L463.491 0L463.767 0.283203ZM109.788 184.962C109.56 184.974 109.222 184.992 108.781 185.018C107.9 185.069 106.608 185.151 104.973 185.271C101.702 185.51 97.052 185.904 91.543 186.521C80.5215 187.754 66.0689 189.875 52.3232 193.43C38.561 196.988 25.5765 201.966 17.4346 208.874C13.371 212.322 10.5406 216.227 9.39844 220.65C8.25819 225.067 8.78426 230.062 11.5439 235.727C14.0605 240.892 17.4721 244.237 21.5283 246.144C25.592 248.054 30.3475 248.542 35.5771 247.912C46.0523 246.651 58.3141 240.921 70.4209 233.43C94.0072 218.835 116.793 197.687 124.234 190.545C119.837 188.696 115.164 186.87 110.03 184.949C109.973 184.952 109.892 184.957 109.788 184.962ZM187.032 127.509C211.192 136.005 223.811 144.217 229.389 151.71C232.215 155.507 233.243 159.133 233.027 162.51C232.814 165.853 231.383 168.896 229.378 171.574C228.627 173.587 227.107 175.415 225.291 177.015C223.449 178.637 221.272 180.054 219.196 181.221C217.119 182.388 215.132 183.31 213.665 183.941C212.931 184.257 212.326 184.501 211.904 184.665C211.694 184.747 211.528 184.809 211.415 184.852C211.359 184.873 211.315 184.889 211.285 184.899C211.271 184.905 211.259 184.909 211.251 184.912C211.248 184.913 211.244 184.914 211.242 184.915L211.24 184.916H211.239L210.875 183.985L210.876 183.984C210.877 183.984 210.88 183.983 210.882 183.982C210.887 183.98 210.896 183.976 210.906 183.972C210.928 183.962 210.96 183.948 211.002 183.93C211.087 183.892 211.215 183.836 211.379 183.761C211.707 183.611 212.186 183.386 212.778 183.092C213.964 182.503 215.61 181.632 217.445 180.511C221.106 178.273 225.484 175.056 228.488 171.094C229.115 169.317 229.047 167.417 227.875 165.398C226.674 163.33 224.298 161.111 220.249 158.81C212.183 154.224 197.658 149.412 173.237 144.774L149.605 174.348C171.511 181.313 183.821 187.933 198.748 202.349C198.75 202.348 198.753 202.347 198.755 202.346C198.961 202.25 199.267 202.106 199.661 201.917C200.449 201.538 201.593 200.976 203.009 200.247C205.841 198.789 209.764 196.661 214.121 193.981C222.847 188.616 233.278 181.067 240.221 172.293C247.16 163.523 250.541 153.634 245.434 143.477C240.312 133.293 226.594 122.683 198.894 112.664L187.032 127.509ZM471.471 82.8486C451.299 89.7048 433.974 89.6508 398.811 85.9492L471.471 188.511V82.8486ZM141.177 171.271C141.258 171.252 141.334 171.235 141.402 171.216C141.456 171.201 141.505 171.184 141.548 171.169C141.489 171.136 141.421 171.099 141.341 171.062L141.177 171.271ZM331.67 139.344C347.447 135.297 359.043 133.329 369.487 133.363C379.618 133.397 388.638 135.315 399.316 139.003L331.67 42.7432V139.344Z" fill="white"/>
</svg>
